PathFileType	4	(X/Y/Z)	C:\Users\Basilio\Documents\Thesis Gigler\squatting_fais\c3dfiles\041\SLS_pre_back3\markers_experimental.trc
DataRate	CameraRate	NumFrames	NumMarkers	Units	OrigDataRate	OrigDataStartFrame	OrigNumFrames
200.000000	200.000000	4	62	mm	200.000000	0	1490
Frame#	Time	FHD			LBHD			RBHD			C7			T10			CLAV			LSHO			LUUPA			LMUPA			LDUPA			LLEP			LMEP			LRAD			LUL			LRFIN			RSHO			RUPA1			RMUPA			RDUPA			RLEP			RMEP			RRAD			RUL			RUFIN			LASI			RASI			USACR			LSACR			RSACR			LTHI1			LTHI2			LTHI3			LTHI4			LLFC			LMFC			LTIB1			LTIB2			LTIB3			LTIB4			LLMAL			LMMAL			LHEE			LMT1			LMT2			LMT5			RTHI			RTHI2			RTHI3			RTHI4			RLFC			RMFC			RTIB1			RTIB2			RTIB3			RTIB4			RLMAL			RMMAL			RHEE			RMT1			RMT2			RMT5			*61			
		X1	Y1	Z1	X2	Y2	Z2	X3	Y3	Z3	X4	Y4	Z4	X5	Y5	Z5	X6	Y6	Z6	X7	Y7	Z7	X8	Y8	Z8	X9	Y9	Z9	X10	Y10	Z10	X11	Y11	Z11	X12	Y12	Z12	X13	Y13	Z13	X14	Y14	Z14	X15	Y15	Z15	X16	Y16	Z16	X17	Y17	Z17	X18	Y18	Z18	X19	Y19	Z19	X20	Y20	Z20	X21	Y21	Z21	X22	Y22	Z22	X23	Y23	Z23	X24	Y24	Z24	X25	Y25	Z25	X26	Y26	Z26	X27	Y27	Z27	X28	Y28	Z28	X29	Y29	Z29	X30	Y30	Z30	X31	Y31	Z31	X32	Y32	Z32	X33	Y33	Z33	X34	Y34	Z34	X35	Y35	Z35	X36	Y36	Z36	X37	Y37	Z37	X38	Y38	Z38	X39	Y39	Z39	X40	Y40	Z40	X41	Y41	Z41	X42	Y42	Z42	X43	Y43	Z43	X44	Y44	Z44	X45	Y45	Z45	X46	Y46	Z46	X47	Y47	Z47	X48	Y48	Z48	X49	Y49	Z49	X50	Y50	Z50	X51	Y51	Z51	X52	Y52	Z52	X53	Y53	Z53	X54	Y54	Z54	X55	Y55	Z55	X56	Y56	Z56	X57	Y57	Z57	X58	Y58	Z58	X59	Y59	Z59	X60	Y60	Z60	X61	Y61	Z61	X62	Y62	Z62	

1	0	-224.2516326904297	1793.096557617188	-1163.926635742188	-392.8408203125001	1708.062377929688	-1239.739379882813	-374.8099365234376	1714.46435546875	-1087.43505859375	-415.8334045410157	1556.266357421875	-1165.283447265625	-422.6238708496095	1245.233642578125	-1118.451416015625	-252.2632751464844	1510.8037109375	-1169.03466796875	-364.2164611816407	1540.457885742188	-1335.354736328125	-438.8961486816407	1362.41162109375	-1409.406127929688	-406.3321228027345	1326.392456054688	-1416.173217773438	-460.2998352050782	1298.140869140625	-1424.92236328125	-472.7699584960939	1249.697265625	-1431.089111328125	-459.3317871093751	1207.587646484375	-1354.082153320313	-334.3520202636719	1007.15673828125	-1471.837890625	-407.3255615234376	998.8594970703127	-1492.78759765625	-313.1543579101563	946.281188964844	-1517.767333984375	-327.1573791503907	1570.792236328125	-997.2006835937502	-429.1976318359376	1391.2900390625	-889.262878417969	-383.6127624511719	1373.479736328125	-875.8513793945315	-419.1191406250001	1327.635986328125	-860.6385498046877	-421.8038024902345	1284.327026367188	-846.622741699219	-428.5594482421876	1246.940795898438	-928.6983642578127	-318.3320007324219	1036.91552734375	-828.2876586914065	-384.4954528808595	1034.535888671875	-790.6641845703127	-290.0326843261719	972.4761352539065	-793.1438598632815	-257.9898376464844	1051.98974609375	-1216.089233398438	-254.1319122314454	1070.001098632813	-993.306091308594	-432.3210754394532	1132.183715820313	-1102.815185546875	-448.6201171875001	1103.865600585938	-1126.093994140625	-447.8946533203126	1109.124755859375	-1072.033325195313	-371.7552185058594	837.1704101562502	-1255.200317382813	-330.0775451660157	763.7118530273439	-1246.148803710938	-282.7917785644532	771.372253417969	-1240.03515625	-353.2961730957032	710.5947875976564	-1230.078979492188	-322.3798217773438	532.7363891601564	-1199.958618164063	-309.0477905273438	525.8050537109376	-1080.137817382813	-298.0095825195313	344.3942565917969	-1124.861694335938	-350.1126098632813	297.8964538574219	-1182.084838867188	-311.3623046875001	295.0232849121094	-1157.024780273438	-316.2493896484376	221.8735961914063	-1115.420043945313	-379.4149475097657	123.9596939086914	-1145.763061523438	-343.2529296875001	143.0476989746094	-1065.712158203125	-444.3989868164064	110.819938659668	-1101.094360351563	-240.0369415283204	73.13937377929689	-1057.00537109375	-228.5218200683594	60.8794403076172	-1099.897094726563	-272.8867797851563	37.70489120483399	-1155.058715820313	-327.2751159667969	814.3297119140627	-875.9552001953127	-280.1080932617188	767.4307250976564	-869.4356689453127	-249.2340393066407	772.5960693359377	-878.5679321289065	-297.2467346191407	683.9681396484376	-866.131286621094	-310.0098571777344	578.6771240234376	-863.1651000976565	-285.7984924316407	532.9081420898439	-965.9548339843752	-391.4735717773439	436.040008544922	-853.5714111328127	-504.0211181640626	435.5516967773439	-868.0237426757815	-472.8062438964845	404.3063354492189	-852.2261962890627	-482.7903442382814	347.3918457031251	-869.4246215820315	-606.4318847656251	297.3091125488282	-870.373962402344	-553.7149658203126	277.7638244628907	-935.9404296875002	-665.1634521484376	285.6286926269532	-935.0460205078127	-496.6116027832032	160.9432830810547	-877.545593261719	-504.8588256835939	171.2864227294922	-826.7023925781252	-562.9106445312501	184.7799224853516	-797.5080566406252	-4216.422851562501	853.1719360351565	-3944.750488281251	
2	0.005	-224.2332000732422	1793.095458984375	-1164.645629882813	-392.6316528320314	1708.023681640625	-1240.591552734375	-374.6434326171876	1714.531005859375	-1088.460571289063	-415.7163085937501	1556.232543945313	-1165.954467773438	-422.5283813476564	1245.304565429688	-1118.563232421875	-252.3173370361329	1510.81689453125	-1169.624267578125	-363.9861145019532	1539.96044921875	-1335.876708984375	-439.0333862304689	1361.9853515625	-1409.63134765625	-406.4912719726564	1325.994018554688	-1416.313354492188	-460.3462829589845	1297.585815429688	-1424.934692382813	-472.9329223632814	1249.294555664063	-1431.046142578125	-459.3866577148439	1207.244018554688	-1353.951416015625	-335.2117309570313	1006.486450195313	-1471.878051757813	-408.2845153808595	998.139343261719	-1492.484619140625	-314.3131408691407	945.3623046875002	-1517.887084960938	-327.1266174316407	1571.090209960938	-997.9099731445315	-429.1132202148439	1391.70458984375	-889.6519775390627	-383.7121582031251	1374.063720703125	-876.0869750976565	-418.9906311035157	1328.064453125	-860.8179321289065	-421.6895446777345	1284.881958007813	-846.7891845703127	-428.2804565429689	1247.312866210938	-928.7188720703127	-318.3577575683594	1037.452026367188	-827.4614257812502	-384.6514282226564	1035.275146484375	-789.914489746094	-290.0969238281251	973.1571044921877	-792.187438964844	-257.9544982910157	1052.005737304688	-1216.067749023438	-254.1331024169922	1070.131469726563	-993.2814941406252	-432.2607421875001	1132.256225585938	-1102.762817382813	-448.5833740234376	1103.955932617188	-1126.038696289063	-447.7243957519532	1109.190063476563	-1071.963256835938	-371.8489685058594	837.2502441406252	-1255.134643554688	-330.2110900878907	763.7755126953126	-1246.148193359375	-282.9256591796876	771.4217529296877	-1240.062133789063	-353.3525390625001	710.6298217773439	-1230.036376953125	-322.5165405273438	532.7636718750001	-1200.008544921875	-310.0014648437501	525.8657836914064	-1079.6240234375	-298.1139831542969	344.4514770507813	-1124.960083007813	-350.3194274902344	297.9367980957032	-1182.222534179688	-311.6050109863282	295.5296630859376	-1157.095458984375	-316.2638549804688	221.8946075439454	-1115.5380859375	-379.5394897460938	123.926986694336	-1145.833984375	-343.2947082519532	143.1125640869141	-1065.853149414063	-444.4631347656251	110.7998886108399	-1101.1728515625	-240.0816650390626	73.2102508544922	-1057.120849609375	-228.5278320312501	60.97916412353517	-1099.962158203125	-272.9670715332032	37.65678405761719	-1155.111328125	-327.2407226562501	814.480163574219	-875.8003540039065	-280.0009765625001	767.6103515625001	-869.238708496094	-249.1018829345704	772.8094482421877	-878.441345214844	-297.2551879882813	684.1633911132814	-865.8439941406252	-309.7922058105469	578.9950561523439	-862.8389282226565	-284.6855163574219	532.8123168945314	-965.4468383789065	-391.4652709960939	436.4682922363282	-853.1689453125002	-503.9192504882814	436.047088623047	-867.6235351562502	-472.9071044921876	404.8518676757814	-851.7400512695315	-483.0396423339845	348.0293579101563	-868.8992919921877	-606.6429443359376	298.1032104492188	-869.9465332031252	-554.0939331054689	278.6418457031251	-935.5932617187502	-665.4763183593751	286.6693725585938	-934.6467895507815	-496.9477844238282	161.5747680664063	-877.3153076171877	-505.0970153808595	172.16552734375	-826.9460449218752	-563.0729980468751	185.3327789306641	-797.3666992187502	-4216.475585937501	853.2261352539065	-3944.899658203126	
3	0.01	-224.6904907226563	1793.48193359375	-1165.518432617188	-392.6667785644532	1707.97705078125	-1241.392700195313	-374.6070556640626	1714.485229492188	-1089.272705078125	-415.7368164062501	1556.189331054688	-1166.638793945313	-422.5209960937501	1245.375854492188	-1118.672973632813	-252.1090698242188	1510.728515625	-1170.450317382813	-364.5605468750001	1539.856323242188	-1336.468872070313	-439.2009582519532	1361.546752929688	-1409.836791992188	-406.6558532714845	1325.561279296875	-1416.514526367188	-460.027801513672	1296.89306640625	-1424.965576171875	-473.1527404785157	1248.878173828125	-1430.972412109375	-459.4137268066407	1206.89208984375	-1353.860229492188	-336.2568664550782	1005.720886230469	-1471.8359375	-409.0935058593751	997.4151000976565	-1492.193115234375	-315.5658569335938	944.285827636719	-1517.916259765625	-327.0254821777344	1571.357421875	-998.5948486328127	-429.1013183593751	1392.162353515625	-890.0015869140627	-383.6781005859376	1374.561401367188	-876.3502197265627	-418.819549560547	1328.528686523438	-861.0112304687502	-421.689666748047	1285.359252929688	-846.3615722656252	-428.1130676269532	1247.629760742188	-928.7329101562502	-318.1959838867188	1038.023071289063	-826.684020996094	-384.7100219726564	1036.025512695313	-789.2874755859377	-290.3838500976563	973.755554199219	-790.951354980469	-257.9419250488282	1052.004638671875	-1216.0498046875	-254.0511016845704	1070.264526367188	-993.2130126953127	-432.1912841796876	1132.365600585938	-1102.721435546875	-448.5010070800782	1104.002807617188	-1125.980102539063	-447.6594543457032	1109.2880859375	-1071.9189453125	-371.9257202148438	837.3404541015627	-1255.016967773438	-330.2792053222657	763.8319091796876	-1246.12158203125	-282.9570007324219	771.497009277344	-1240.063598632813	-353.5344238281251	710.6959838867189	-1230.063842773438	-322.6827087402344	532.8055419921876	-1200.063598632813	-310.0115966796876	525.8713989257814	-1079.760131835938	-298.2178649902344	344.4516906738282	-1125.124877929688	-350.5338134765626	298.0166625976563	-1182.361450195313	-311.4802246093751	295.1497802734376	-1157.309692382813	-316.3219909667969	221.8623962402344	-1115.703247070313	-379.6180725097657	123.8684005737305	-1145.970947265625	-343.3098754882813	143.1345977783203	-1065.96875	-444.4913940429689	110.7874450683594	-1101.211059570313	-240.1281890869141	73.3651580810547	-1057.241821289063	-228.4989318847657	61.05842208862306	-1100.158447265625	-273.1005554199219	37.75863265991212	-1155.203002929688	-327.2121887207032	814.6235351562502	-875.6502685546877	-279.9734802246094	767.6981201171876	-869.0112304687502	-249.0226745605469	773.0034790039065	-878.2192382812502	-297.2441101074219	684.3279418945314	-865.6009521484377	-309.5762023925782	579.2622070312501	-862.4567871093752	-284.5389709472657	533.0533447265626	-965.0674438476565	-391.5820922851564	436.8788146972657	-852.8640136718752	-503.8850097656251	436.6560974121095	-867.2365722656252	-473.1429748535157	405.5103759765626	-851.1980590820315	-483.4839172363282	348.7670593261719	-868.2852172851565	-606.8497314453126	298.7985229492188	-869.4712524414065	-554.3305664062501	279.3236389160157	-935.0708618164065	-665.8306274414064	287.6343688964844	-934.2541503906252	-497.5395507812501	162.2603912353516	-876.8838500976565	-505.5440673828126	172.6952819824219	-826.7212524414065	-563.7283935546876	186.1347808837891	-797.0609130859377	-4216.475097656251	853.226013183594	-3944.899902343751	
4	0.015	-224.7504119873047	1793.485961914063	-1166.37744140625	-392.642547607422	1707.954345703125	-1242.183349609375	-374.6064453125001	1714.501708984375	-1090.019653320313	-415.7304077148439	1556.176635742188	-1167.333862304688	-422.481658935547	1245.443603515625	-1118.759399414063	-252.0609436035157	1510.755737304688	-1171.230346679688	-364.2595520019532	1539.335083007813	-1337.017456054688	-439.3600463867189	1361.119262695313	-1410.056762695313	-406.8094787597657	1325.091552734375	-1416.67724609375	-460.2403869628907	1296.406982421875	-1425.0166015625	-473.0080871582032	1248.259643554688	-1430.783813476563	-459.4565429687501	1206.581298828125	-1353.735961914063	-337.0505981445313	1004.874267578125	-1471.943359375	-409.9212646484376	996.5703735351565	-1491.818481445313	-316.6951599121094	943.4742431640627	-1518.027709960938	-326.9992065429688	1571.574096679688	-999.3034667968752	-428.8960571289064	1392.609008789063	-890.397399902344	-383.6791076660157	1374.958251953125	-876.4288330078127	-418.6893615722657	1328.992797851563	-861.2136840820315	-421.6246948242189	1285.912475585938	-846.4800415039065	-427.9384765625001	1248.033203125	-928.7534179687502	-317.9804687500001	1038.701049804688	-825.7326660156252	-384.6074523925782	1036.74365234375	-788.7296142578127	-290.4102478027344	974.5079345703127	-789.7507324218752	-258.0400695800782	1051.945556640625	-1215.981689453125	-253.9596405029297	1070.521728515625	-993.1629028320315	-432.2932128906251	1132.628784179688	-1102.82421875	-448.4783935546876	1104.118041992188	-1125.910888671875	-447.5818786621095	1109.4130859375	-1071.8134765625	-372.0124511718751	837.4266357421877	-1254.978881835938	-330.3623046875001	763.9061279296876	-1246.101318359375	-283.1027526855469	771.5437011718752	-1240.073974609375	-353.6022644042969	710.7656250000001	-1229.968383789063	-322.7571411132813	532.8380737304689	-1200.138793945313	-310.0311889648438	525.8546752929689	-1079.873901367188	-298.2450866699219	344.4785461425782	-1125.2802734375	-350.6369628906251	298.0568542480469	-1182.516235351563	-311.5835876464844	295.2147827148438	-1157.5087890625	-316.3839111328126	221.9160766601563	-1115.771240234375	-379.6732788085938	123.8162536621094	-1146.081665039063	-343.3006286621094	143.1787109375	-1066.119873046875	-444.4904785156251	110.7850112915039	-1101.236450195313	-240.0914916992188	73.4748001098633	-1057.3828125	-228.4876708984376	61.20831680297853	-1100.242553710938	-272.3044128417969	37.24453735351563	-1154.999267578125	-327.2479248046876	814.7841796875002	-875.5164184570315	-279.8919677734376	767.8225097656251	-868.7659301757815	-249.0190887451172	773.148620605469	-878.0090942382815	-297.2618408203126	684.5065307617189	-865.3591308593752	-309.2295837402344	579.5437011718751	-862.1728515625002	-284.4336853027344	533.2907714843751	-964.7176513671877	-391.6768493652345	437.328338623047	-852.414245605469	-504.1112060546876	437.3540039062501	-866.697204589844	-473.2527770996095	406.1052246093751	-850.8137817382815	-483.6016235351564	349.3143005371094	-867.8974609375002	-607.2464599609376	299.7658996582032	-869.1007080078127	-554.8154296875001	280.0128784179688	-934.5682373046877	-666.0819702148439	288.4574584960938	-933.7950439453127	-498.2386779785157	162.7980651855469	-876.6419067382815	-505.8987731933595	173.6602478027344	-825.5861816406252	-564.2276000976564	186.5833740234375	-796.7932739257815	-4216.477050781251	853.2666625976565	-3944.885986328126	
